<?xml version="1.0" encoding="utf-8"?>
<!-- Generator: Adobe Illustrator 19.2.1, SVG Export Plug-In . SVG Version: 6.00 Build 0)  -->
<svg version="1.1" id="Слой_2" xmlns="http://www.w3.org/2000/svg" xmlns:xlink="http://www.w3.org/1999/xlink" x="0px" y="0px"
	 viewBox="0 0 452 116.4" style="enable-background:new 0 0 452 116.4;" xml:space="preserve">
<style type="text/css">
	.st0{fill:#EB6309;}
	.st1{fill:#2D2D2D;}
	.st2{fill:#727272;}
</style>
<g>
	<path class="st0" d="M49.9,1.9c1.9,3,3.9,5.9,4.8,9.9c1.2-1.6,2.4-3.3,3.4-5.1c1.3,4.8,0.6,12-4.8,11.9
		C48.2,16.7,49.7,8.3,49.9,1.9"/>
	<path class="st0" d="M52.4,19.8c7.6-1,11.4,2.8,17,4c3.6,0.7,7.1,0.4,11.4,1.4c-1.8,2.6-4.7,3.6-8.2,4.3c-3.5,0.6-7.7,0.1-11.1,1.1
		c-5.8,1.8-6,10.6-1.7,13.6c3.2,2.2,8.3,2.6,11.1,4c4.8,2.3,11.1,7.3,13.6,12.5c4.1,8.5-0.9,17.4-5.7,21.6c-8.1,7-27.4,8-33-2.8
		c-1.2-2.4-3.7-11.1-0.6-13.4c1.7-1.3,4.7-0.3,7.1,0c1.4,1.9,1.4,4.3,2.6,6.3c2.5,4,11,5.2,14.8,2.6c2.5-1.8,2.9-5.8,1.7-9.1
		c-2.7-7.6-14.6-8.4-25-8.2c0.3-13.8,3.7-24.5,5.4-36.9C51.8,20.1,52.1,19.9,52.4,19.8"/>
	<path class="st0" d="M79.6,35.8c1,0.9,3.1,5.6,3.1,5.6c1.2,0.2,2.2-3,3.3-3.1c0.3,2.3,0.1,3.3-0.7,4.5c0.3,0.6,2.1,1.2,4.3,3.2
		c1.2,1.1,3.9,1.6,3.9,1.9c-0.2,3-4.3,2-7.3,2c-4.4,0-7.4,0.6-9.3-1.1c1.1-3.2,2.6-3.6,3.6-5.4c-0.1-1.8-0.9-1.8-1.6-3.1
		C78.7,38.7,79.5,37.1,79.6,35.8"/>
	<path class="st0" d="M1.3,107.6v-0.3C20.8,99.6,33,84.7,41.1,65.5c-0.6,7.8,0.4,12.6,3.4,17c0.9,1.4,2.1,2.6,2,3.7
		c-0.1,1.1-2.1,3.4-3.4,4.8C33.8,101,17.7,106.2,1.3,107.6"/>
	<path class="st0" d="M59,91.4c-1.2,2.9-3.1,5.2-3.1,9.4c2.5,1.7,5.8,0.7,8.5,0.3c2.9-0.5,5.7-0.9,8.5-1.4
		c5.6-1.1,11.3-3.1,17.1-1.7c1.7,4.1-1.1,8-2.3,11.1c-9.7,0-19.6-0.1-29.3-0.6c-5.6-0.2-11.3,0.5-16.5-0.9c1-8.1,5.5-12.7,8.5-18.7
		c0.2-0.1,0.3,0.1,0.3,0.3C53.2,90.1,55.7,91.1,59,91.4"/>
	<path class="st1" d="M129.2,73.9L129.2,73.9C129.2,73.9,129.1,73.9,129.2,73.9l-3.1-3.1c-0.6-0.6-1.6-0.6-2.2,0
		c-1.4,1.4-2.9,2-4.8,2c-1.9,0-3.5-0.7-4.8-2c-1.4-1.4-2-2.9-2-4.8c0-1.9,0.7-3.5,2-4.8c1.3-1.4,2.9-2,4.8-2c1.9,0,3.5,0.7,4.8,2
		c0.6,0.6,1.6,0.6,2.2,0l2.9-2.9l0.3-0.2c0.4-0.4,0.5-0.8,0.5-1.1c0-0.3-0.1-0.6-0.4-1c-0.1-0.1-0.1-0.1-0.2-0.2
		c-2.8-2.7-6.2-4.1-10.1-4.1c-3.9,0-7.4,1.4-10.2,4.2c-2.8,2.8-4.2,6.2-4.2,10.2s1.4,7.4,4.2,10.2c2.8,2.8,6.2,4.2,10.2,4.2
		c4,0,7.4-1.4,10.2-4.2C129.9,75.5,129.9,74.6,129.2,73.9"/>
	<path class="st1" d="M270.4,51.7c0,0-2.4,0.3-2.4,2.2c0,1.9,0.1,24.5,0.1,24.5s0.5,1.6,2.3,1.6c1.8,0,3.7-0.1,3.7-0.1
		s1.5-0.5,1.5-2s0.2-7.1,0.2-7.1s0.8-0.4,1.3,0.3c0.5,0.7,6.1,8.4,6.1,8.4s2.4,0.6,5,0.4s3.4-1.3,3.1-2.3
		c-0.3-1.1-8.9-12.1-8.9-12.1s-0.7-1.4,0.5-2.5c1.1-1.2,6.8-7.8,6.8-7.8s1.5-1.7,0.9-2.4c-0.6-0.7-4.2-0.4-5.3-0.1
		c-1.1,0.3-2,0.7-3.2,2.3c-1.1,1.6-4.2,5-4.8,5.6c-0.6,0.6-1.4,0.3-1.4-0.7c0-1.1,0.1-5.9,0.1-5.9s0.3-1.6-1.5-1.9
		C272.8,51.7,270.4,51.7,270.4,51.7"/>
	<path class="st1" d="M298.8,52l14.5-0.1c0,0,2.7,0,2,1.9c-0.9,2.3-0.9,3.1-2.8,3.5c-1.9,0.4-7,0.3-7,0.3s-1.3,0-1.3,1.2
		c0,1.2-0.5,3.4,1.1,3.6c1.6,0.2,5.5-0.5,5.8,0.8c0.2,1.4-0.1,3.5-0.1,3.5s-0.3,0.6-1.5,0.8c-1.1,0.2-4.6-0.2-4.7,1
		c-0.1,1.2-0.3,4.6-0.3,4.6s-0.1,1.1,2.2,1.2c2.3,0.1,6.3,0,7.6,0c1.2,0,1.1,2,0.5,3.2c-0.6,1.4-1.5,1.9-3.2,2.3
		c-1.7,0.3-11,0.4-12.9,0.2c-1.9-0.2-2.7-1.2-3-2.5c-0.2-1.4,0.1-23.1,0.1-23.1S296.6,52,298.8,52"/>
	<path class="st1" d="M320.4,77.2c0,0,0.1-23,0.1-23.6c0-0.6,0.5-1.7,2.5-1.7c1.4,0,3.7,0.1,4.1,0.1c0.4,0,1.5,0.4,1.5,2
		c0,1.6-0.1,7.7-0.1,7.7s-0.1,1.1,1.5,1.2c1.6,0.1,5.1,0.2,5.7-0.3c0.6-0.5,0.6-4.1,0.6-5.7c0-1.6-0.5-4.4,1.2-4.7
		c1.9-0.4,7-0.9,7.2,1.5c0.2,2.8,0,23.7,0,23.7s-0.1,2.1-2.2,2.3c-2,0.2-4.3,0.1-4.3,0.1s-1.6-0.1-1.6-2.4c0-2.3-0.2-7.1-0.2-7.1
		s0-1.9-1.2-1.9c-1.7,0-5.1-0.1-5.1-0.1s-1.5-0.1-1.5,2c0,2.8,0,7,0,7s0.3,2.9-4.1,2.9C320.4,80.1,320.4,77.2,320.4,77.2"/>
	<path class="st1" d="M349,77.8l0.1-24.7c0,0,0.1-1.3,2.7-1.3c2.6,0,14.1-0.1,14.1-0.1s3.7-0.3,2.5,2.8c-1,2.6-1.3,3-3,3.1
		c-1.7,0.1-7.9-0.5-7.9,1.1c0,7.5,0.2,18.5,0.2,18.5s-0.2,2.7-4.2,2.7S349.5,78.9,349,77.8"/>
	<path class="st1" d="M370.4,57.3l8.7,9.4l-6.3,11.9c0,0-0.4,1.4,1.2,1.5c4,0.3,6,0.3,6.7-0.3c0.8-0.6,14.6-23.8,14.4-25.4
		c-0.2-1.6-1.1-2.1-2.6-2.2c-1.5-0.1-3.5-0.9-5.2,2.6c-2.1,4.1-2.7,5.5-3.8,5.5c-1.1,0-7-7.3-8-8c-0.8-0.6-2.1-1.2-3.6,0.4
		C370.4,54.2,369.4,56.3,370.4,57.3"/>
	<path class="st1" d="M424.2,57.3l8.7,9.4l-6.3,11.9c0,0-0.4,1.4,1.2,1.5c4,0.3,6,0.3,6.7-0.3c0.8-0.6,14.6-23.8,14.4-25.4
		c-0.2-1.6-1.1-2.1-2.6-2.2c-1.5-0.1-3.5-0.9-5.2,2.6c-2.1,4.1-2.7,5.5-3.8,5.5c-1.1,0-7-7.3-8-8c-0.8-0.6-2.1-1.2-3.6,0.4
		C424.1,54.2,423.1,56.3,424.2,57.3"/>
	<path class="st1" d="M412.8,64.4c-1.1,1.7-5.4,2.1-6.2,1.9c-0.8-0.2-0.7-6.8-0.7-6.8s-0.3-1.6,1.4-1.8c1.7-0.2,4.7,0.4,5.3,2
		C413.3,61.2,414,62.7,412.8,64.4 M421.5,57.6c-1.5-2.4-4.4-4.4-7.7-5.4c-3.3-0.9-8.8-0.3-12.4-0.1c-3.6,0.2-3.6,3-3.6,3l0.3,22.7
		c0.2,3.1,4.3,2.3,6,2c1.7-0.3,1.8-0.6,2.2-1.6c0.3-1,0.1-5.3,0.7-6c0.6-0.7,4.2-0.4,6.5-1.1c2.3-0.6,5.8-1.5,7.6-4.6
		C422.4,64.1,423,60,421.5,57.6"/>
	<path class="st1" d="M212.6,64.4c-1.1,1.7-5.4,2.1-6.2,1.9c-0.8-0.2-0.7-6.8-0.7-6.8s-0.3-1.6,1.4-1.8c1.7-0.2,4.7,0.4,5.3,2
		C213.1,61.2,213.8,62.7,212.6,64.4 M221.3,57.6c-1.5-2.4-4.4-4.4-7.7-5.4c-3.3-0.9-8.8-0.3-12.4-0.1c-3.6,0.2-3.6,3-3.6,3l0.3,22.7
		c0.2,3.1,4.3,2.3,6,2c1.7-0.3,1.8-0.6,2.2-1.6c0.3-1,0.1-5.3,0.7-6c0.6-0.7,4.2-0.4,6.5-1.1c2.3-0.6,5.8-1.5,7.6-4.6
		C222.2,64.1,222.7,60,221.3,57.6"/>
	<path class="st1" d="M246.1,51.7c0,0-6.4,0.1-10.4,0.1c-4,0-10.4-0.1-10.4-0.1s-3.8-0.3-2.5,2.8c1,2.6,1.3,3,3,3.1
		c1.7,0.1,5.7-0.2,5.7,0.7l0,9.8c0,5-0.1,9.2-0.1,9.2s0,0.1,0.1,0.3v0.1c0.5,1.1,0.5,2.1,3.4,2.3c0,0,0,0,0.1,0c0.1,0,0.3,0,0.4,0
		c0.1,0,0.1,0,0.2,0c0,0,0,0,0.1,0c0.1,0,0.1,0,0.2,0c4,0,4.2-2.7,4.2-2.7s0-3.4-0.1-7.6l-0.1-11.3c0-0.8,4-0.6,5.7-0.7
		c1.7-0.1,2-0.5,3-3.1C249.9,51.4,246.1,51.7,246.1,51.7"/>
	<path class="st1" d="M176.9,68.4c-0.1,0-0.3,0-0.4-0.1c0.3-0.6,0.5-1.2,0.8-1.8c0.7-1.5,1.4-3,2-4.3c0.6,1.3,1.3,2.8,2,4.3
		c0.3,0.6,0.5,1.1,0.8,1.7C181.1,68.5,178.3,68.5,176.9,68.4 M195,78.3c0,0-9-19.5-11.3-23.7c-0.8-1.5-1.4-2.5-2.5-2.8
		c-1-0.3-2.8-0.1-3.3-0.1c-1.4,0.2-2.2,1.1-3.2,3c-2,4.3-11.2,23.8-11.2,23.8s-0.3,1.2,1.3,1.3c2.9,0.2,5.5,0.3,6.4-0.7
		c0.2-0.2,1.3-2.4,2.7-5.5c0.9-0.1,1.8-0.1,1.8-0.1s5.7-0.1,7.4-0.1c0.2,0,0.8,0,1.5,0.1c1.5,3.1,2.6,5.4,2.8,5.6
		c1,1,3.4,1.1,6.3,0.6C195.3,79.5,195,78.3,195,78.3"/>
	<path class="st1" d="M161.1,54.1c-0.4-2.6-2.1-2.3-3.3-2.3c-1.5,0-2.1-0.1-2.7,0.4c-0.6,0.5-7.1,11.2-7.8,11.1
		c-0.4,0-6.6-10.3-6.7-10.5c-0.4-0.6-1.1-0.9-1.8-0.9c-0.4,0-1.6,0-2.9,0c-2,0-2.5,1.1-2.5,1.7c0,0.6-0.1,23.8-0.1,23.8s0,1.1,1,2
		c0.6,0.5,1.4,0.6,2.9,0.6c1.3,0,2,0,2.6-0.4c1.4-0.9,1.2-2.2,1.2-2.2s0-5.2,0-8.1c0-0.1,0-1.2,0-1.3c0,0,0-3,0-5.5
		c0.3,0.3,3.4,5.4,5.2,7.5c0.4,0.5,1.6,0.5,2,0.1c1.7-1.8,4.7-6.4,5.2-7c0.2,2.9,0.1,12.1,0.1,14.5c0,2.3,1.6,2.4,1.6,2.4
		s2.6,0.2,4.6-0.1c1.8-0.2,1.7-2.3,1.7-2.3S161.5,56.9,161.1,54.1"/>
	<path class="st2" d="M444.6,109.1v-2.6c-1.1,0.7-2.5,1-4,1c-1.4,0-2.6-0.4-3.5-1.3c-0.9-0.9-1.4-2-1.4-3.3c0-1.3,0.5-2.4,1.4-3.3
		c0.9-0.9,2.1-1.3,3.5-1.3c1.2,0,2.5,0.3,3.7,0.9v-2.6c-1.2-0.6-2.6-1-4.2-1c-2.1,0-3.9,0.7-5.3,2c-1.5,1.3-2.2,3.1-2.2,5.2
		s0.7,3.9,2.2,5.2c1.5,1.4,3.2,2,5.3,2C441.8,110.2,443.2,109.8,444.6,109.1 M425.9,99.7c0.8,0.9,1.3,2,1.3,3.3
		c0,1.3-0.4,2.4-1.3,3.3c-0.8,0.9-1.9,1.3-3.2,1.3c-0.9,0-1.7-0.2-2.4-0.7c-0.7-0.5-1.3-1-1.7-1.8v-4.3c0.4-0.7,1-1.3,1.7-1.8
		c0.7-0.5,1.5-0.7,2.4-0.7C424,98.4,425.1,98.8,425.9,99.7 M418.6,97.9v-1.9h-3.1v19.4h3.1V108c1.2,1.5,2.8,2.2,4.9,2.2
		c2,0,3.6-0.7,4.8-2.1c1.3-1.4,1.9-3.1,1.9-5.1c0-2.1-0.6-3.8-1.9-5.2c-1.3-1.4-2.9-2.1-4.8-2.1C421.4,95.7,419.8,96.4,418.6,97.9
		 M406.1,111.3l6.6-15.3h-3.3l-4,9.7l-4.2-9.7h-3.4l6.1,13.3c-0.5,1.3-1.1,2.2-1.6,2.7c-0.5,0.6-1.2,0.8-2,0.8c-0.7,0-1.4-0.2-2-0.4
		v2.7c0.5,0.3,1.4,0.4,2.5,0.4C403.1,115.6,404.9,114.2,406.1,111.3 M386.6,103.6l6.2,6.2h4.2l-7.6-7.6l6.6-6.2h-3.9l-5.5,5.2v-5.2
		h-3.1v13.8h3.1V103.6z M369.1,104.1h7v5.7h3.1V96.1h-3.1v5.4h-7v-5.4h-3.1v13.8h3.1V104.1z M360.5,108.1c1.4-1.4,2.1-3.1,2.1-5.2
		s-0.7-3.7-2.1-5.1c-1.5-1.4-3.3-2.1-5.5-2.1c-2.2,0-4,0.7-5.5,2.1c-1.4,1.4-2.1,3.1-2.1,5.1c0,2,0.7,3.8,2.1,5.2
		c1.4,1.4,3.3,2.1,5.5,2.1C357.3,110.2,359.1,109.5,360.5,108.1 M351.8,106.2c-0.9-0.9-1.3-2-1.3-3.3c0-1.3,0.4-2.4,1.3-3.3
		c0.9-0.9,2-1.3,3.3-1.3c1.3,0,2.4,0.4,3.3,1.3c0.9,0.9,1.3,1.9,1.3,3.3c0,1.3-0.4,2.4-1.3,3.3c-0.9,0.9-2,1.3-3.3,1.3
		C353.8,107.5,352.7,107.1,351.8,106.2 M336.4,103.6l6.2,6.2h4.2l-7.6-7.6l6.6-6.2h-3.9l-5.5,5.2v-5.2h-3.1v13.8h3.1V103.6z
		 M319.8,89.6h-2.6c0,0.7-0.2,1.2-0.7,1.7c-0.4,0.4-1,0.6-1.7,0.6c-0.7,0-1.2-0.2-1.7-0.6c-0.4-0.4-0.6-1-0.6-1.7H310
		c0,1.4,0.5,2.5,1.4,3.4c0.9,0.8,2.1,1.3,3.5,1.3c1.4,0,2.6-0.4,3.5-1.3C319.3,92.1,319.8,91,319.8,89.6 M318.6,100.5v9.4h3.1V96.1
		h-2.9l-7.5,9.3v-9.3h-3.1v13.8h2.9L318.6,100.5z M300.8,100.5v9.4h3.1V96.1H301l-7.5,9.3v-9.3h-3.1v13.8h2.9L300.8,100.5z
		 M277.4,103.6l6.2,6.2h4.2l-7.6-7.6l6.6-6.2h-3.9l-5.5,5.2v-5.2h-3.1v13.8h3.1V103.6z M270.6,109.1v-2.6c-1.1,0.7-2.5,1-4,1
		c-1.4,0-2.6-0.4-3.5-1.3c-0.9-0.9-1.4-2-1.4-3.3c0-1.3,0.5-2.4,1.4-3.3c0.9-0.9,2.1-1.3,3.5-1.3c1.2,0,2.5,0.3,3.7,0.9v-2.6
		c-1.2-0.6-2.6-1-4.2-1c-2.1,0-3.9,0.7-5.3,2c-1.5,1.3-2.2,3.1-2.2,5.2s0.7,3.9,2.2,5.2c1.5,1.4,3.2,2,5.3,2
		C267.8,110.2,269.3,109.8,270.6,109.1 M253.5,89.6h-2.6c0,0.7-0.2,1.2-0.7,1.7c-0.4,0.4-1,0.6-1.7,0.6c-0.7,0-1.2-0.2-1.7-0.6
		c-0.4-0.4-0.6-1-0.6-1.7h-2.6c0,1.4,0.5,2.5,1.4,3.4c0.9,0.8,2.1,1.3,3.5,1.3c1.4,0,2.6-0.4,3.5-1.3C253,92.1,253.5,91,253.5,89.6
		 M252.2,100.5v9.4h3.1V96.1h-2.9l-7.5,9.3v-9.3h-3.1v13.8h2.9L252.2,100.5z M234.5,100.5v9.4h3.1V96.1h-2.9l-7.5,9.3v-9.3h-3.1
		v13.8h2.9L234.5,100.5z M220.4,109.1v-2.6c-1.1,0.7-2.5,1-4,1c-1.4,0-2.6-0.4-3.5-1.3c-0.9-0.9-1.4-2-1.4-3.3
		c0-1.3,0.5-2.4,1.4-3.3c0.9-0.9,2.1-1.3,3.5-1.3c1.2,0,2.5,0.3,3.7,0.9v-2.6c-1.2-0.6-2.6-1-4.2-1c-2.1,0-3.9,0.7-5.3,2
		c-1.5,1.3-2.2,3.1-2.2,5.2s0.7,3.9,2.2,5.2c1.5,1.4,3.2,2,5.3,2C217.6,110.2,219.1,109.8,220.4,109.1 M206,109.1v-2.6
		c-1.1,0.7-2.5,1-4,1c-1.4,0-2.6-0.4-3.5-1.3c-0.9-0.9-1.4-2-1.4-3.3c0-1.3,0.5-2.4,1.4-3.3c0.9-0.9,2.1-1.3,3.5-1.3
		c1.2,0,2.5,0.3,3.7,0.9v-2.6c-1.2-0.6-2.6-1-4.2-1c-2.1,0-3.9,0.7-5.3,2c-1.5,1.3-2.2,3.1-2.2,5.2s0.7,3.9,2.2,5.2
		c1.5,1.4,3.2,2,5.3,2C203.2,110.2,204.7,109.8,206,109.1 M189.5,108.1c1.4-1.4,2.1-3.1,2.1-5.2s-0.7-3.7-2.1-5.1
		c-1.5-1.4-3.3-2.1-5.5-2.1c-2.2,0-4,0.7-5.5,2.1c-1.4,1.4-2.1,3.1-2.1,5.1c0,2,0.7,3.8,2.1,5.2c1.4,1.4,3.3,2.1,5.5,2.1
		C186.3,110.2,188.1,109.5,189.5,108.1 M180.8,106.2c-0.9-0.9-1.3-2-1.3-3.3c0-1.3,0.4-2.4,1.3-3.3c0.9-0.9,2-1.3,3.3-1.3
		c1.3,0,2.4,0.4,3.3,1.3c0.9,0.9,1.3,1.9,1.3,3.3c0,1.3-0.4,2.4-1.3,3.3c-0.9,0.9-2,1.3-3.3,1.3
		C182.8,107.5,181.7,107.1,180.8,106.2 M169.7,99.7c0.8,0.9,1.3,2,1.3,3.3c0,1.3-0.4,2.4-1.3,3.3c-0.8,0.9-1.9,1.3-3.2,1.3
		c-0.9,0-1.7-0.2-2.4-0.7c-0.7-0.5-1.3-1-1.7-1.8v-4.3c0.4-0.7,1-1.3,1.7-1.8c0.7-0.5,1.5-0.7,2.4-0.7
		C167.8,98.4,168.9,98.8,169.7,99.7 M162.4,97.9v-1.9h-3.1v19.4h3.1V108c1.2,1.5,2.8,2.2,4.9,2.2c2,0,3.6-0.7,4.8-2.1
		c1.3-1.4,1.9-3.1,1.9-5.1c0-2.1-0.6-3.8-1.9-5.2c-1.3-1.4-2.9-2.1-4.8-2.1C165.2,95.7,163.6,96.4,162.4,97.9 M146.5,99.2
		c0.7-0.6,1.6-0.9,2.7-0.9c1.1,0,2,0.3,2.7,1c0.6,0.7,1,1.4,1,2.3h-7.5C145.4,100.6,145.8,99.8,146.5,99.2 M144.4,108.2
		c1.5,1.3,3.3,2,5.5,2c2.1,0,3.8-0.4,5.1-1.3v-2.6c-1.4,0.8-2.9,1.2-4.5,1.2c-1.4,0-2.6-0.3-3.5-1c-0.9-0.7-1.5-1.6-1.7-2.7h10.6
		V103c0-2.8-1-4.8-2.9-6.2c-1-0.7-2.2-1.1-3.6-1.1c-2.1,0-3.8,0.7-5.1,2.1c-1.3,1.4-2,3.1-2,5.2
		C142.2,105.1,142.9,106.8,144.4,108.2 M139.7,109.1v-2.6c-1.1,0.7-2.5,1-4,1c-1.4,0-2.6-0.4-3.5-1.3c-0.9-0.9-1.4-2-1.4-3.3
		c0-1.3,0.5-2.4,1.4-3.3c0.9-0.9,2.1-1.3,3.5-1.3c1.2,0,2.5,0.3,3.7,0.9v-2.6c-1.2-0.6-2.6-1-4.2-1c-2.1,0-3.9,0.7-5.3,2
		c-1.5,1.3-2.2,3.1-2.2,5.2s0.7,3.9,2.2,5.2c1.5,1.4,3.2,2,5.3,2C136.9,110.2,138.4,109.8,139.7,109.1 M117.1,93
		c1,0,1.8,0.2,2.4,0.6c0.6,0.4,0.9,1.1,0.9,1.9c0,0.8-0.3,1.5-0.9,1.9c-0.6,0.4-1.4,0.7-2.4,0.7h-5.3V93H117.1z M117.8,100.8
		c1.2,0,2.2,0.3,2.9,0.8c0.7,0.5,1,1.3,1,2.2c0,1-0.3,1.8-1,2.3c-0.7,0.6-1.6,0.8-2.8,0.8h-6v-6.2H117.8z M123.3,108.3
		c1.2-1,1.8-2.3,1.8-4c0-1.4-0.4-2.6-1.2-3.5c-0.8-0.9-1.8-1.5-3-1.7c0.8-0.3,1.4-0.8,1.9-1.5c0.5-0.7,0.7-1.6,0.7-2.5
		c0-1.5-0.5-2.7-1.6-3.5c-1-0.9-2.5-1.3-4.3-1.3h-9v19.6h9.7C120.5,109.8,122.1,109.3,123.3,108.3"/>
</g>
</svg>
